# xmcd
#
# Track frame offsets:
# 150
# 5649
# 11930
# 18899
# 32085
# 35791
# 45487
# 54133
# 62593
# 67786
# 74548
# 93250
# 102582
# 109098
# 117530
# 122998
# 133584
# 138742
# 152710
# 157678
# 165365
# 174441
# 181659
# 190145
# 195392
# 202453
# 209743
# 213715
# 219371
# 225370
# 231343
# 235292
# 240354
# 245428
# 252714
# 264223
# 270074
# 276825
# 281086
# 288210
# 298385
# 304177
# 309016
# 313787
# 319130
# 322973
# 330283
# 337442
# 345301
#
# Disc length: 4721 seconds
#
#
# Revision: 0
# Processed by: cddbd v1.5.2PL0 Copyright (c) Steve Scherf et al.
# Submitted via: FreeRIP 2.96 
#
DISCID=d4126f31
DTITLE=My First Album Performers - My First Album
DYEAR=2006
DGENRE=Comedy
TTITLE0=If You're happy and you know it
TTITLE1=The wheels on the bus
TTITLE2=I am the music man
TTITLE3=Lobby Loo
TTITLE4=Baa Baa Black Sheep
TTITLE5=Heads, Shoulders, Knees and Toes
TTITLE6=Here we go round the mulberry bush
TTITLE7=Old McDonald
TTITLE8=Row, Row, Row, Your Boat
TTITLE9=Dingle, Dangle Scarecrow
TTITLE10=Ten Green Bottles
TTITLE11=This Old Man
TTITLE12=1,2,3,4,5, Once I caught a fish alive
TTITLE13=Balamory Theme
TTITLE14=Fimbles Theme
TTITLE15=One Man Went To Mow
TTITLE16=I'm a little tea pot
TTITLE17=Can We Fix It?
TTITLE18=Going to the zoo
TTITLE19=The Alphabet Song
TTITLE20=Nellie the Elephant
TTITLE21=Teletubbies Theme
TTITLE22=London Bridge is falling down
TTITLE23=Jack and Jill
TTITLE24=Postman Pat Theme
TTITLE25=One Finger One Thumb
TTITLE26=Humpty Dumpty
TTITLE27=She'll be coming round the mountain
TTITLE28=The Grand Old Duke of York
TTITLE29=Pat a cake Pat a cake
TTITLE30=Rosie and Jim Theme
TTITLE31=Sing a Song of sixpence
TTITLE32=Ring a Ring O Roses
TTITLE33=Little Miss Muffet
TTITLE34=Theres a hole in my bucket
TTITLE35=The Tweenies Theme
TTITLE36=The Teddy Bears Picnic
TTITLE37=Pop GOes The Weasel
TTITLE38=Oranges and Lemons
TTITLE39=There was an old lady who lives in a shoe
TTITLE40=How much is that doggy in the window
TTITLE41=Hickory Dickory Dock
TTITLE42=Three Blind Mice
TTITLE43=Polly Put The Kettle On
TTITLE44=Incy Wincy Spider
TTITLE45=See Saw Marjory Daw
TTITLE46=Its Raining Its Pouring
TTITLE47=Puff The Magic Dragon
TTITLE48=Little Bo Peep
EXTD=
EXTT0=
EXTT1=
EXTT2=
EXTT3=
EXTT4=
EXTT5=
EXTT6=
EXTT7=
EXTT8=
EXTT9=
EXTT10=
EXTT11=
EXTT12=
EXTT13=
EXTT14=
EXTT15=
EXTT16=
EXTT17=
EXTT18=
EXTT19=
EXTT20=
EXTT21=
EXTT22=
EXTT23=
EXTT24=
EXTT25=
EXTT26=
EXTT27=
EXTT28=
EXTT29=
EXTT30=
EXTT31=
EXTT32=
EXTT33=
EXTT34=
EXTT35=
EXTT36=
EXTT37=
EXTT38=
EXTT39=
EXTT40=
EXTT41=
EXTT42=
EXTT43=
EXTT44=
EXTT45=
EXTT46=
EXTT47=
EXTT48=
PLAYORDER=
